<svg xmlns="http://www.w3.org/2000/svg" viewBox="0 0 512 512" fill="none">
  <!-- Premium circular dark emblem for clean browser tab rendering -->
  <circle cx="256" cy="256" r="240" fill="url(#bgGrad)" stroke="#111518" stroke-width="8"/>
  
  <!-- Sleek, modern tooth logo in clean white gradient -->
  <path d="M190 140C150 140 140 175 140 230C140 295 185 325 195 380C199 405 185 435 205 445C225 455 240 415 250 390C253 378 259 378 262 390C272 415 287 455 307 445C327 435 313 405 317 380C327 325 372 295 372 230C372 175 362 140 322 140C288 140 273 162 256 162C239 162 224 140 190 140Z" fill="url(#toothGrad)"/>

  <!-- Shimmering shine highlight -->
  <path d="M365 110L370 130L390 135L370 140L365 160L360 140L340 135L360 130Z" fill="url(#sparkleGrad)"/>
  <circle cx="365" cy="135" r="3" fill="#ffffff"/>

  <defs>
    <linearGradient id="bgGrad" x1="0" y1="0" x2="512" y2="512" gradientUnits="userSpaceOnUse">
      <stop offset="0%" stop-color="#0a0e10"/>
      <stop offset="100%" stop-color="#010304"/>
    </linearGradient>
    <linearGradient id="toothGrad" x1="140" y1="140" x2="372" y2="445" gradientUnits="userSpaceOnUse">
      <stop offset="0%" stop-color="#ffffff"/>
      <stop offset="100%" stop-color="#f0f3f5"/>
    </linearGradient>
    <linearGradient id="sparkleGrad" x1="340" y1="110" x2="390" y2="160" gradientUnits="userSpaceOnUse">
      <stop offset="0%" stop-color="#ffffff"/>
      <stop offset="100%" stop-color="#00f2fe"/>
    </linearGradient>
  </defs>
</svg>